HIERARCHY
ROOT Hips
{
	OFFSET 0.000000 0.000000 0.000000
	CHANNELS 6 Xposition Yposition Zposition Zrotation Yrotation Xrotation 
	JOINT LHipJoint
	{
		OFFSET 0.000000 0.000000 0.000000
		CHANNELS 3 Zrotation Yrotation Xrotation
		JOINT LeftUpLeg
		{
			OFFSET 1.363060 -1.794630 0.839290
			CHANNELS 3 Zrotation Yrotation Xrotation
			JOINT LeftLeg
			{
				OFFSET 2.448110 -6.726130 0.000000
				CHANNELS 3 Zrotation Yrotation Xrotation
				JOINT LeftFoot
				{
					OFFSET 2.562200 -7.039590 0.000000
					CHANNELS 3 Zrotation Yrotation Xrotation
					JOINT LeftToeBase
					{
						OFFSET 0.157640 -0.433110 2.322550
						CHANNELS 3 Zrotation Yrotation Xrotation
						End Site
						{
							OFFSET 0.000000 0.000000 0.000000
						}
					}
				}
			}
		}
	}
	JOINT RHipJoint
	{
		OFFSET 0.000000 0.000000 0.000000
		CHANNELS 3 Zrotation Yrotation Xrotation
		JOINT RightUpLeg
		{
			OFFSET -1.305520 -1.794630 0.839290
			CHANNELS 3 Zrotation Yrotation Xrotation
			JOINT RightLeg
			{
				OFFSET -2.542530 -6.985550 0.000000
				CHANNELS 3 Zrotation Yrotation Xrotation
				JOINT RightFoot
				{
					OFFSET -2.568260 -7.056230 0.000000
					CHANNELS 3 Zrotation Yrotation Xrotation
					JOINT RightToeBase
					{
						OFFSET -0.164730 -0.452590 2.363150
						CHANNELS 3 Zrotation Yrotation Xrotation
						End Site
						{
							OFFSET 0.000000 0.000000 0.000000
						}
					}
				}
			}
		}
	}
}
MOTION
Frames: 31
Frame Time: 0.008333
3.859813 17.213402 1.305830 -178.745499 -70.219116 -171.535174 -11.555736 1.422142 -2.276991 -5.509632 28.285088 -15.278173 -2.981186 -0.868278 3.129578 1.067647 8.215784 -1.795491 0.804100 0.000001 -32.408900 9.417322 -1.504900 3.552977 0.587904 3.227203 -13.294951 2.754227 1.190332 -2.429950 0.819101 5.984640 5.135984 0.952700 -0.000000 -44.802599
3.858625 17.214341 1.304642 -178.644360 -69.886382 -171.608153 -11.568213 1.407985 -2.322027 -5.460409 28.459024 -15.260914 -2.976365 -0.867066 3.149674 1.092904 8.408353 -1.826315 0.817300 0.000000 -32.381700 9.397768 -1.515362 3.606852 0.591683 3.483051 -13.238963 2.768136 1.204945 -2.709178 0.858719 6.161655 5.391927 0.998800 0.000001 -44.680000
3.857794 17.215561 1.303299 -178.565001 -69.530744 -171.673814 -11.584858 1.398175 -2.365080 -5.411381 28.668193 -15.238312 -2.974178 -0.866666 3.162880 1.114836 8.584013 -1.837498 0.831700 0.000000 -32.372100 9.375628 -1.532991 3.673489 0.590748 3.751903 -13.162923 2.782525 1.222996 -3.038108 0.905000 6.342621 5.685570 1.044601 -0.000000 -44.556100
3.857604 17.217015 1.301553 -178.515028 -69.163958 -171.732328 -11.606236 1.393687 -2.405367 -5.361237 28.914646 -15.203743 -2.974974 -0.867310 3.166222 1.131626 8.732498 -1.822216 0.847101 -0.000000 -32.387700 9.350999 -1.559042 3.752643 0.583784 4.029730 -13.067166 2.796399 1.242743 -3.395501 0.955721 6.521859 5.999491 1.088800 0.000000 -44.425000
3.858446 17.218702 1.299226 -178.496106 -68.799428 -171.790217 -11.632619 1.395041 -2.442440 -5.306132 29.197805 -15.150367 -2.978728 -0.868845 3.155830 1.141709 8.844308 -1.774356 0.863800 0.000000 -32.435200 9.324106 -1.593482 3.841871 0.572448 4.309355 -12.951597 2.809042 1.262456 -3.758689 1.008526 6.692648 6.315516 1.129900 0.000000 -44.284400
3.860583 17.220632 1.296203 -178.502756 -68.452510 -171.855023 -11.663500 1.402515 -2.475077 -5.243392 29.512839 -15.077415 -2.985461 -0.870882 3.127679 1.143826 8.910335 -1.689254 0.881700 0.000000 -32.517000 9.295237 -1.635148 3.938534 0.560823 4.585219 -12.821022 2.819912 1.280778 -4.103879 1.059665 6.843260 6.615261 1.165000 0.000000 -44.137300
3.864551 17.222600 1.292826 -178.518724 -68.136501 -171.947436 -11.698068 1.415956 -2.505573 -5.162196 29.849622 -14.968758 -2.993835 -0.872561 3.070030 1.137778 8.927528 -1.564804 0.900600 0.000001 -32.640200 9.266426 -1.679047 4.030338 0.558122 4.832043 -12.664491 2.830076 1.297143 -4.419799 1.108470 6.980010 6.887423 1.195600 0.000000 -43.990000
3.870115 17.224781 1.288984 -178.520415 -67.870836 -172.073546 -11.733490 1.433797 -2.532490 -5.064543 30.191974 -14.841026 -3.004043 -0.873347 2.979043 1.123339 8.889503 -1.399843 0.920101 -0.000000 -32.795700 9.238812 -1.721349 4.113431 0.572331 5.047405 -12.499283 2.839314 1.311217 -4.686475 1.150001 7.079727 7.118276 1.216300 -0.000000 -43.853800
3.877483 17.227098 1.285061 -178.482629 -67.674498 -172.246828 -11.766545 1.453026 -2.558426 -4.946173 30.518114 -14.695875 -3.014909 -0.872965 2.843511 1.101253 8.796476 -1.196126 0.939700 0.000000 -32.980000 9.214547 -1.753591 4.173434 0.616713 5.212624 -12.375969 2.847670 1.315867 -4.796415 1.176930 7.140852 7.245530 1.226300 0.000000 -43.741899
3.886220 17.229620 1.281396 -178.375145 -67.567342 -172.475445 -11.794675 1.470498 -2.583347 -4.807298 30.801294 -14.541378 -3.025181 -0.872046 2.650423 1.072685 8.651683 -0.954649 0.959400 -0.000000 -33.180800 9.194559 -1.768160 4.197711 0.703806 5.312510 -12.375197 2.854589 1.300632 -4.593355 1.179177 7.159254 7.183120 1.224400 0.000001 -43.666299
3.895966 17.232403 1.278370 -178.179398 -67.560912 -172.759465 -11.816686 1.485425 -2.605081 -4.653213 31.016243 -14.390362 -3.034094 -0.870272 2.390467 1.039204 8.459076 -0.680152 0.978400 0.000000 -33.388100 9.182578 -1.765580 4.183396 0.836744 5.319302 -12.340080 2.865283 1.293127 -4.438571 1.176408 7.124242 7.134670 1.209200 0.000000 -43.638700
3.906276 17.235474 1.276379 -177.889277 -67.661544 -173.098528 -11.833598 1.499637 -2.614616 -4.491173 31.139552 -14.251253 -3.040011 -0.868025 2.054075 1.002506 8.226024 -0.376006 0.996300 0.000000 -33.589700 9.177150 -1.743981 4.128464 1.019302 5.216685 -12.283136 2.881236 1.294386 -4.323734 1.168895 7.035026 7.100060 1.180201 0.000000 -43.666600
3.916386 17.239025 1.275699 -177.507066 -67.867715 -173.488511 -11.847432 1.518079 -2.598829 -4.331903 31.150576 -14.130632 -3.040938 -0.865601 1.633481 0.964627 7.964014 -0.044040 1.013500 -0.000000 -33.771400 9.175900 -1.703782 4.036468 1.249682 4.994086 -12.217997 2.903614 1.305329 -4.238293 1.157367 6.893480 7.080750 1.137700 0.000000 -43.752400
3.925728 17.243001 1.276568 -177.039074 -68.170141 -173.926418 -11.859224 1.546267 -2.547464 -4.185412 31.040573 -14.034436 -3.035615 -0.862730 1.129460 0.927074 7.681195 0.310719 1.029400 -0.000000 -33.926300 9.177480 -1.645754 3.912758 1.522140 4.648139 -12.157889 2.933009 1.326325 -4.168570 1.142889 6.705455 7.074070 1.082500 0.000001 -43.895100
3.933587 17.247473 1.279002 -176.492677 -68.552938 -174.403841 -11.868220 1.588787 -2.454411 -4.062883 30.805374 -13.968570 -3.022993 -0.859264 0.546198 0.891605 7.389870 0.684760 1.044500 -0.000000 -34.047000 9.182338 -1.570953 3.763727 1.826280 4.185662 -12.118078 2.969043 1.357035 -4.102866 1.126540 6.478397 7.078765 1.016100 0.000000 -44.088100
3.939375 17.252386 1.282727 -175.881879 -68.994257 -174.905174 -11.871974 1.648249 -2.319338 -3.974448 30.449469 -13.938881 -3.002741 -0.855098 -0.104425 0.859822 7.103405 1.073177 1.059199 0.000000 -34.129801 9.192548 -1.480627 3.596497 2.148000 3.624885 -12.113976 3.010387 1.396513 -4.032900 1.109326 6.221395 7.092144 0.940500 -0.000000 -44.321100
3.942331 17.257720 1.287171 -175.231444 -69.468403 -175.402835 -11.867948 1.725754 -2.145552 -3.930555 29.989054 -13.952791 -2.975962 -0.850727 -0.802820 0.832687 6.833155 1.470437 1.074100 0.000000 -34.172600 9.210327 -1.378328 3.421617 2.468965 2.994952 -12.159175 3.054866 1.443468 -3.955554 1.092066 5.943810 7.111518 0.858200 0.000000 -44.580000
3.941705 17.263511 1.291418 -174.587561 -69.954495 -175.853599 -11.855515 1.821747 -1.932006 -3.943033 29.433207 -14.014635 -2.943144 -0.848767 -1.528807 0.812182 6.603638 1.872040 1.092900 -0.000000 -34.172700 9.235323 -1.272829 3.257935 2.767895 2.334523 -12.266235 3.099626 1.496495 -3.875008 1.075166 5.652571 7.135180 0.771200 0.000000 -44.846299
3.936908 17.269720 1.294484 -174.021222 -70.442448 -176.207651 -11.838699 1.935030 -1.680663 -4.018854 28.824618 -14.124000 -2.909148 -0.852818 -2.244424 0.796601 6.414563 2.269288 1.115100 0.000000 -34.130100 9.262827 -1.180638 3.132530 3.020705 1.685501 -12.430797 3.140868 1.553040 -3.800552 1.058795 5.356660 7.160000 0.682401 0.000000 -45.102600
3.928058 17.276275 1.295570 -173.610898 -70.927320 -176.410267 -11.823707 2.058373 -1.401302 -4.157855 28.202967 -14.270073 -2.878790 -0.867328 -2.912465 0.784639 6.271911 2.651932 1.141800 -0.000000 -34.047300 9.285824 -1.118422 3.066859 3.206329 1.091766 -12.640028 3.174396 1.609181 -3.745586 1.042440 5.064036 7.184249 0.595100 -0.000000 -45.331900
3.916107 17.282899 1.294335 -173.412892 -71.373450 -176.405491 -11.813907 2.177825 -1.126224 -4.349132 27.610112 -14.437383 -2.855900 -0.891984 -3.496499 0.776445 6.185578 3.003171 1.173900 -0.000000 -33.933300 9.301385 -1.086977 3.054629 3.312189 0.599673 -12.878839 3.197544 1.661111 -3.721696 1.025852 4.785635 7.208855 0.513200 0.000000 -45.520700
3.902307 17.289226 1.290767 -173.459197 -71.696376 -176.157370 -11.810199 2.284514 -0.894388 -4.574409 27.105775 -14.605500 -2.842404 -0.918461 -3.962846 0.773611 6.161017 3.301260 1.209800 -0.000000 -33.800700 9.310641 -1.070902 3.072651 3.333568 0.254056 -13.121915 3.210435 1.707277 -3.731203 1.010830 4.540656 7.237731 0.441800 -0.000000 -45.663000
3.888254 17.294991 1.284766 -173.775181 -71.822545 -175.662375 -11.813494 2.378296 -0.721522 -4.818098 26.731598 -14.749770 -2.836752 -0.938173 -4.290204 0.779722 6.215251 3.529684 1.250700 0.000000 -33.660100 9.313502 -1.057860 3.111976 3.267725 0.085630 -13.339613 3.213554 1.747172 -3.773522 0.999969 4.347638 7.276615 0.385400 0.000000 -45.755500
3.874938 17.300047 1.276229 -174.342751 -71.729381 -174.957799 -11.824199 2.455427 -0.617231 -5.066373 26.517270 -14.849327 -2.838519 -0.948188 -4.466506 0.796056 6.355108 3.680114 1.297100 0.000000 -33.520500 9.309463 -1.046224 3.172048 3.116083 0.105944 -13.506481 3.206240 1.778358 -3.851972 0.994731 4.221994 7.328417 0.348801 -0.000000 -45.803301
3.863217 17.304165 1.265281 -175.095966 -71.419548 -174.117027 -11.839510 2.510578 -0.585113 -5.306300 26.467354 -14.897845 -2.846327 -0.948814 -4.489719 0.823423 6.587538 3.747159 1.350099 -0.000000 -33.390900 9.300064 -1.037372 3.251355 2.891232 0.310441 -13.615632 3.189139 1.798820 -3.968186 0.995897 4.174582 7.393601 0.335500 0.000001 -45.815800
3.853395 17.306994 1.252415 -175.936846 -70.904029 -173.239197 -11.855254 2.542276 -0.621763 -5.523647 26.577681 -14.894713 -2.858552 -0.941369 -4.366971 0.861348 6.909453 3.728566 1.408300 0.000000 -33.280700 9.288683 -1.033713 3.346700 2.613882 0.677206 -13.668246 3.165001 1.808071 -4.117811 1.004831 4.218792 7.470328 0.349500 0.000000 -45.809400
3.845115 17.308129 1.238381 -176.759414 -70.210664 -172.422136 -11.868201 2.550293 -0.719692 -5.704921 26.839472 -14.852974 -2.874647 -0.928704 -4.108634 0.907174 7.300963 3.622916 1.467101 -0.000000 -33.201001 9.277730 -1.039580 3.454080 2.312373 1.171998 -13.675394 3.138280 1.807369 -4.295712 1.022686 4.364009 7.555765 0.393200 -0.000000 -45.803900
3.837605 17.307347 1.223764 -177.489741 -69.422071 -171.725042 -11.875969 2.530705 -0.867519 -5.845060 27.224236 -14.795278 -2.895802 -0.919076 -3.731888 0.956061 7.733316 3.438428 1.521300 -0.000000 -33.155300 9.267907 -1.066884 3.575606 2.013014 1.743671 -13.659244 3.111194 1.796318 -4.498646 1.048840 4.611575 7.642431 0.467900 0.000000 -45.817500
3.830115 17.304667 1.209129 -178.096205 -68.629088 -171.189111 -11.879448 2.488335 -1.036150 -5.941172 27.703223 -14.740686 -2.922042 -0.918360 -3.254830 1.003324 8.172180 3.186292 1.565000 0.000001 -33.143200 9.256152 -1.128581 3.725827 1.739088 2.335118 -13.629297 3.085804 1.776064 -4.720591 1.082639 4.954945 7.724973 0.571800 0.000000 -45.862000
3.822046 17.300190 1.195282 -178.557424 -67.869247 -170.835688 -11.881462 2.432015 -1.202960 -5.988317 28.252066 -14.702632 -2.950482 -0.924230 -2.700998 1.046809 8.587517 2.876274 1.591900 0.000000 -33.162300 9.239601 -1.219192 3.900148 1.513805 2.898484 -13.611447 3.065472 1.747169 -4.900457 1.122310 5.386332 7.775985 0.701101 0.000000 -45.942400
3.813031 17.294064 1.183412 -178.846969 -67.157680 -170.668987 -11.884349 2.364692 -1.364097 -5.978783 28.846707 -14.691805 -2.978296 -0.931889 -2.096012 1.085015 8.951588 2.516700 1.596900 -0.000000 -33.209600 9.216135 -1.317645 4.069605 1.364714 3.405126 -13.765545 3.047794 1.688695 -4.692126 1.151680 5.896957 7.610816 0.850500 0.000000 -46.055000
